<?xml version="1.0" encoding="UTF-8"?>
<svg version="1.1" xmlns="http://www.w3.org/2000/svg" width="400" height="250">
<path d="M0 0 C3.36335594 1.45745424 5.54534005 3.31117854 8.109375 5.9140625 C9.24052734 7.05488281 9.24052734 7.05488281 10.39453125 8.21875 C11.17183594 9.0128125 11.94914062 9.806875 12.75 10.625 C13.93916016 11.82769531 13.93916016 11.82769531 15.15234375 13.0546875 C17.10614493 15.03202846 19.05512103 17.01388909 21 19 C18.69909822 24.24208645 14.60507793 27.80267066 10.625 31.8125 C9.85671875 32.61365234 9.0884375 33.41480469 8.296875 34.24023438 C7.55179687 34.99240234 6.80671875 35.74457031 6.0390625 36.51953125 C5.02126709 37.55750854 5.02126709 37.55750854 3.98291016 38.61645508 C2 40 2 40 -0.10742188 39.90136719 C-2.7294727 38.65257827 -3.94163758 36.56182914 -5.65332031 34.28710938 C-9.14188671 29.90267357 -12.38709837 26.57361555 -18.00488281 25.34033203 C-29.61534862 24.271622 -42.80242786 24.21157372 -52.82421875 30.87890625 C-55.10802547 33.10531029 -56.94687538 35.34994324 -58.8125 37.9375 C-59.58335937 38.989375 -60.35421875 40.04125 -61.1484375 41.125 C-61.58897461 41.72699219 -62.02951172 42.32898438 -62.48339844 42.94921875 C-66.27466665 48.07585316 -70.1703482 53.12496895 -74.04174805 58.19116211 C-77.05762449 62.13828148 -80.07169168 66.08555996 -83.04296875 70.06640625 C-83.48713135 70.65687744 -83.93129395 71.24734863 -84.38891602 71.85571289 C-85.52671061 73.36925162 -86.65818961 74.88753261 -87.7890625 76.40625 C-90.71959049 79.8441839 -93.91827046 82.95913523 -98 85 C-101.66716856 85.13765648 -105.33103022 85.04266244 -109 85 C-105.00520428 78.82374587 -100.74898835 72.95525421 -96.1875 67.1875 C-94.9380313 65.59435421 -93.68933203 64.00060467 -92.44140625 62.40625 C-91.84473145 61.64441406 -91.24805664 60.88257813 -90.63330078 60.09765625 C-88.59852963 57.48438962 -86.60485692 54.84256824 -84.625 52.1875 C-83.93792969 51.2696875 -83.25085938 50.351875 -82.54296875 49.40625 C-81.0887654 47.46161184 -79.63951305 45.51350341 -78.19384766 43.5625 C-76.11688438 40.76440381 -74.02774126 37.97568716 -71.9375 35.1875 C-71.27637207 34.29119873 -70.61524414 33.39489746 -69.93408203 32.47143555 C-62.92506457 23.1605476 -55.9130459 15.84429698 -44 14 C-41.72868302 14.00069163 -39.45711528 14.05271737 -37.1875 14.140625 C-20.52996052 15.18149485 -20.52996052 15.18149485 -6.18164062 8.28222656 C-3.85785344 5.63467892 -1.86762298 2.99069248 0 0 Z " fill="#7A60E5" transform="translate(257,27)"/>
<path d="M0 0 C0.95777344 0.03609375 1.91554688 0.0721875 2.90234375 0.109375 C3.61519531 0.15578125 4.32804688 0.2021875 5.0625 0.25 C1.59952038 5.85455913 -2.28933705 11.02060908 -6.4375 16.125 C-11.06261737 21.82258733 -15.48639778 27.63489929 -19.8125 33.5625 C-24.60579718 40.1097188 -29.43585581 46.62432887 -34.375 53.0625 C-34.92978027 53.79702393 -35.48456055 54.53154785 -36.05615234 55.28833008 C-42.52250909 63.65695588 -49.18394539 69.59828496 -59.9375 71.25 C-62.20881698 71.24930837 -64.48038472 71.19728263 -66.75 71.109375 C-83.40753948 70.06850515 -83.40753948 70.06850515 -97.75585938 76.96777344 C-100.07964656 79.61532108 -102.06987702 82.25930752 -103.9375 85.25 C-107.30085594 83.79254576 -109.48284005 81.93882146 -112.046875 79.3359375 C-113.17802734 78.19511719 -113.17802734 78.19511719 -114.33203125 77.03125 C-115.10933594 76.2371875 -115.88664062 75.443125 -116.6875 74.625 C-117.48027344 73.82320313 -118.27304688 73.02140625 -119.08984375 72.1953125 C-121.04364493 70.21797154 -122.99262103 68.23611091 -124.9375 66.25 C-123.48004576 62.88664406 -121.62632146 60.70465995 -119.0234375 58.140625 C-118.26289062 57.38652344 -117.50234375 56.63242188 -116.71875 55.85546875 C-115.9246875 55.07816406 -115.130625 54.30085938 -114.3125 53.5 C-113.51070312 52.70722656 -112.70890625 51.91445312 -111.8828125 51.09765625 C-109.90547154 49.14385507 -107.92361091 47.19487897 -105.9375 45.25 C-102.39293236 46.81066439 -100.96148199 48.56947822 -98.69067383 51.69506836 C-95.3616825 55.94572513 -92.30387737 58.77922023 -86.88183594 59.85791016 C-75.44033023 60.81654045 -60.56727324 61.77322116 -51.22265625 53.98828125 C-50.46855469 53.08464844 -49.71445313 52.18101563 -48.9375 51.25 C-48.50550293 50.73872559 -48.07350586 50.22745117 -47.62841797 49.70068359 C-46.18279171 47.96705549 -44.77563848 46.2076478 -43.375 44.4375 C-42.59672852 43.45898071 -42.59672852 43.45898071 -41.80273438 42.46069336 C-38.11220713 37.79578234 -34.50305304 33.07341702 -30.9375 28.3125 C-30.20128418 27.33108032 -30.20128418 27.33108032 -29.45019531 26.32983398 C-26.85142767 22.85277126 -24.28878899 19.35376313 -21.76171875 15.82421875 C-21.23642578 15.10032959 -20.71113281 14.37644043 -20.16992188 13.63061523 C-19.17176508 12.2540485 -18.18398013 10.86987385 -17.20898438 9.47680664 C-12.7418314 3.35179805 -7.97808965 -0.39397974 0 0 Z " fill="#7A60E5" transform="translate(241.9375,62.75)"/>
<path d="M0 0 C1.62711914 -0.02416992 1.62711914 -0.02416992 3.28710938 -0.04882812 C4.86008789 -0.04979492 4.86008789 -0.04979492 6.46484375 -0.05078125 C7.41866943 -0.05376221 8.37249512 -0.05674316 9.35522461 -0.05981445 C13.42005138 0.49919545 15.9001747 2.21891095 18.85009766 4.99438477 C20.62191817 8.38210844 20.49111939 11.66917373 20.4609375 15.40234375 C20.46380768 16.18388321 20.46667786 16.96542267 20.46963501 17.77064514 C20.47167286 19.42059047 20.46616249 21.07056012 20.45361328 22.72045898 C20.43757631 25.23802104 20.45345927 27.75397258 20.47265625 30.27148438 C20.47067334 31.87760769 20.46682869 33.48373001 20.4609375 35.08984375 C20.47004654 36.21349586 20.47004654 36.21349586 20.4793396 37.35984802 C20.41937355 41.84603008 19.87770718 44.77268798 17.0625 48.3125 C11.58768498 51.47849151 6.79636525 51.77613316 0.5625 51.6875 C-0.25347656 51.69910156 -1.06945312 51.71070313 -1.91015625 51.72265625 C-8.01527984 51.69325758 -12.9150237 50.73048104 -17.8125 46.8125 C-20.51161959 43.21367389 -20.13119712 39.07459511 -20.17578125 34.79296875 C-20.183853 34.05677811 -20.19192474 33.32058746 -20.20024109 32.56208801 C-20.21406035 31.00455058 -20.22479215 29.44698313 -20.23266602 27.8894043 C-20.2441837 26.30174852 -20.26463247 24.7141314 -20.29418945 23.12670898 C-20.3369896 20.82769571 -20.35305128 18.52983161 -20.36328125 16.23046875 C-20.38078934 15.52713913 -20.39829742 14.82380951 -20.41633606 14.09916687 C-20.39426226 9.03963129 -19.18888349 6.15867924 -15.9375 2.3125 C-11.331953 -0.96034298 -5.40968644 -0.01601447 0 0 Z M-9.9375 10.3125 C-10.02540975 12.60401417 -10.04444038 14.89822524 -10.03515625 17.19140625 C-10.0337413 17.8780687 -10.03232635 18.56473114 -10.03086853 19.27220154 C-10.02525479 21.47317801 -10.01270007 23.67405409 -10 25.875 C-9.99498676 27.36393083 -9.99042355 28.85286324 -9.98632812 30.34179688 C-9.97528093 33.99873075 -9.95800713 37.65560558 -9.9375 41.3125 C-6.79347519 42.8845124 -3.44802603 42.49696744 0 42.5 C0.72896484 42.51224609 1.45792969 42.52449219 2.20898438 42.53710938 C6.0338391 42.54762685 7.80606564 42.48345624 11.0625 40.3125 C11.51378304 37.33849443 11.51378304 37.33849443 11.42578125 33.84375 C11.42513672 32.55082031 11.42449219 31.25789063 11.42382812 29.92578125 C11.41552979 29.25111816 11.40723145 28.57645508 11.39868164 27.88134766 C11.3750886 25.82024049 11.37811974 23.7604266 11.38476562 21.69921875 C11.89385539 14.90270608 11.89385539 14.90270608 9.0625 9.3125 C7.14294799 9.0197026 7.14294799 9.0197026 4.96484375 9.08203125 C3.76311523 9.08493164 3.76311523 9.08493164 2.53710938 9.08789062 C1.69986328 9.10013672 0.86261719 9.11238281 0 9.125 C-1.26166992 9.1259668 -1.26166992 9.1259668 -2.54882812 9.12695312 C-6.56265868 8.75942842 -6.56265868 8.75942842 -9.9375 10.3125 Z " fill="#7A60E5" transform="translate(298.9375,166.6875)"/>
<path d="M0 0 C0.94617188 -0.020625 1.89234375 -0.04125 2.8671875 -0.0625 C9.13950662 -0.09773775 12.6707263 0.60134082 17.4375 4.875 C19.31789051 8.63578102 18.80885273 12.08267142 18.625 16.25 C15.655 16.25 12.685 16.25 9.625 16.25 C9.295 13.94 8.965 11.63 8.625 9.25 C5.97875716 9.39021805 3.33315422 9.53689776 0.6875 9.6875 C-0.44461914 9.74647461 -0.44461914 9.74647461 -1.59960938 9.80664062 C-5.29444187 9.69038024 -5.29444187 9.69038024 -8.375 11.25 C-8.44679964 12.76928038 -8.45892007 14.29167482 -8.4375 15.8125 C-8.42847656 16.63878906 -8.41945313 17.46507812 -8.41015625 18.31640625 C-8.39855469 18.95449219 -8.38695312 19.59257812 -8.375 20.25 C-6.42207031 20.30607422 -6.42207031 20.30607422 -4.4296875 20.36328125 C-2.70309743 20.42896674 -0.97653619 20.49541318 0.75 20.5625 C2.03390625 20.59633789 2.03390625 20.59633789 3.34375 20.63085938 C8.42748323 20.8459404 12.3122444 21.28088406 16.625 24.25 C19.80538913 28.11477667 20.03180793 31.33037371 20 36.25 C20.01160156 38.044375 20.01160156 38.044375 20.0234375 39.875 C19.58143667 43.61900706 19.06406718 45.38285164 16.625 48.25 C11.13480882 51.42889704 6.31514521 51.71341132 0.0625 51.625 C-1.1740332 51.64240234 -1.1740332 51.64240234 -2.43554688 51.66015625 C-8.30735326 51.63199411 -12.67001216 50.67516152 -17.1875 46.625 C-19.03245428 42.93509143 -19.07355544 39.34964602 -19.375 35.25 C-16.075 35.25 -12.775 35.25 -9.375 35.25 C-8.715 37.23 -8.055 39.21 -7.375 41.25 C-2.095 41.25 3.185 41.25 8.625 41.25 C8.625 37.95 8.625 34.65 8.625 31.25 C7.46742188 31.21261719 6.30984375 31.17523438 5.1171875 31.13671875 C3.57809439 31.07102575 2.0390333 31.00457958 0.5 30.9375 C-0.26054687 30.91494141 -1.02109375 30.89238281 -1.8046875 30.86914062 C-7.93270095 30.57858826 -12.13976953 29.37328236 -16.71484375 25.02734375 C-19.92667225 19.6541436 -19.15478906 13.27023589 -18.375 7.25 C-17.03090606 4.25913448 -16.01055133 3.33392431 -13.375 1.25 C-8.95269405 -0.22410198 -4.63271583 0.02504171 0 0 Z " fill="#7A60E5" transform="translate(350.375,166.75)"/>
<path d="M0 0 C3.3 0 6.6 0 10 0 C10 6.93 10 13.86 10 21 C16.27 21 22.54 21 29 21 C29 14.07 29 7.14 29 0 C32.3 0 35.6 0 39 0 C39 16.83 39 33.66 39 51 C35.7 51 32.4 51 29 51 C29 44.07 29 37.14 29 30 C22.73 30 16.46 30 10 30 C10 36.93 10 43.86 10 51 C6.7 51 3.4 51 0 51 C0 34.17 0 17.34 0 0 Z " fill="#7A60E5" transform="translate(178,167)"/>
<path d="M0 0 C10.89 0 21.78 0 33 0 C33 2.97 33 5.94 33 9 C25.41 9 17.82 9 10 9 C10 12.96 10 16.92 10 21 C15.94 21 21.88 21 28 21 C28 23.97 28 26.94 28 30 C22.06 30 16.12 30 10 30 C10 33.96 10 37.92 10 42 C17.59 42 25.18 42 33 42 C33 44.97 33 47.94 33 51 C22.11 51 11.22 51 0 51 C0 34.17 0 17.34 0 0 Z " fill="#7A60E5" transform="translate(80,167)"/>
<path d="M0 0 C1.02416016 -0.01546875 2.04832031 -0.0309375 3.10351562 -0.046875 C9.22464083 -0.01517985 12.91223357 0.4108401 17.5625 4.5 C20.36726313 8.06969854 19.70716817 12.15995488 19.5625 16.5 C16.2625 16.5 12.9625 16.5 9.5625 16.5 C9.2325 14.52 8.9025 12.54 8.5625 10.5 C5.91659986 10.47315321 3.27096904 10.45323643 0.625 10.4375 C-0.12974609 10.42912109 -0.88449219 10.42074219 -1.66210938 10.41210938 C-3.58744313 10.40347559 -5.51285581 10.44775667 -7.4375 10.5 C-8.75525285 11.59187983 -8.75525285 11.59187983 -8.55102539 14.27563477 C-8.54578857 15.48533936 -8.54055176 16.69504395 -8.53515625 17.94140625 C-8.53193359 19.24658203 -8.52871094 20.55175781 -8.52539062 21.89648438 C-8.51703401 23.2851569 -8.50856905 24.67382877 -8.5 26.0625 C-8.49498666 27.45507656 -8.49042347 28.84765481 -8.48632812 30.24023438 C-8.47449434 33.6601987 -8.4580088 37.08007844 -8.4375 40.5 C-5.43436252 42.00156874 -2.64682478 41.59281204 0.6875 41.5625 C1.96882813 41.55347656 3.25015625 41.54445312 4.5703125 41.53515625 C6.05144531 41.51775391 6.05144531 41.51775391 7.5625 41.5 C8.2225 39.19 8.8825 36.88 9.5625 34.5 C12.8625 34.5 16.1625 34.5 19.5625 34.5 C20.23214286 43.33928571 20.23214286 43.33928571 17.4375 46.9375 C12.21216805 51.59486109 6.8114463 51.84205989 0.125 51.8125 C-0.96264648 51.83666992 -0.96264648 51.83666992 -2.07226562 51.86132812 C-7.2505261 51.86598065 -10.83340853 50.89249366 -15.4375 48.5 C-21.18102782 42.56502125 -19.65749226 33.85822982 -19.6875 26.1875 C-19.708125 24.88103516 -19.72875 23.57457031 -19.75 22.22851562 C-19.78317989 14.07041044 -19.75435182 8.54590242 -14.46484375 2.09375 C-9.75641833 -0.38500816 -5.23785244 -0.07881408 0 0 Z " fill="#7A60E5" transform="translate(145.4375,166.5)"/>
<path d="M0 0 C6.991875 -0.12375 6.991875 -0.12375 14.125 -0.25 C15.58437988 -0.28641602 17.04375977 -0.32283203 18.54736328 -0.36035156 C19.70993652 -0.3703418 20.87250977 -0.38033203 22.0703125 -0.390625 C23.84559326 -0.4220459 23.84559326 -0.4220459 25.65673828 -0.45410156 C29.70352911 0.09555748 31.83648606 1.46592659 35 4 C37.06741477 7.62244432 37.29669903 10.87068065 37.3125 15 C37.32925781 16.010625 37.34601563 17.02125 37.36328125 18.0625 C36.79833285 22.63068487 34.51531444 26.0705713 31 29 C28.17588235 29.94137255 26.47081968 30.11725382 23.55078125 30.09765625 C22.78677002 30.09515869 22.02275879 30.09266113 21.2355957 30.09008789 C20.27097412 30.08098389 19.30635254 30.07187988 18.3125 30.0625 C13.7028125 30.0315625 13.7028125 30.0315625 9 30 C9 36.93 9 43.86 9 51 C6.03 51 3.06 51 0 51 C0 34.17 0 17.34 0 0 Z M9 9 C9 12.96 9 16.92 9 21 C11.81256281 21.02684312 14.62487241 21.04676188 17.4375 21.0625 C18.64116211 21.07506836 18.64116211 21.07506836 19.86914062 21.08789062 C21.91295221 21.0965143 23.95683902 21.0522815 26 21 C27.25173779 19.96966611 27.25173779 19.96966611 27.1328125 17.75 C27.12894531 16.38875 27.12894531 16.38875 27.125 15 C27.12757813 14.0925 27.13015625 13.185 27.1328125 12.25 C27.25173779 10.03033389 27.25173779 10.03033389 26 9 C23.13732433 8.92674832 20.299281 8.90761795 17.4375 8.9375 C16.63119141 8.94201172 15.82488281 8.94652344 14.99414062 8.95117188 C12.99606244 8.96299482 10.99802217 8.98093086 9 9 Z " fill="#7A60E5" transform="translate(230,167)"/>
<path d="M0 0 C13.53 0 27.06 0 41 0 C41 2.97 41 5.94 41 9 C36.05 9 31.1 9 26 9 C26 22.86 26 36.72 26 51 C22.37 51 18.74 51 15 51 C15 37.14 15 23.28 15 9 C10.05 9 5.1 9 0 9 C0 6.03 0 3.06 0 0 Z " fill="#7A60E5" transform="translate(29,167)"/>
<path d="M0 0 C4.07376031 1.61010527 6.76507069 4.53822271 9.75 7.625 C10.25660156 8.140625 10.76320312 8.65625 11.28515625 9.1875 C12.52803902 10.45383339 13.76465276 11.7263144 15 13 C10.88380164 17.91935902 6.59589638 22.52647956 2 27 C-1.81316478 25.41043716 -4.372784 22.99239303 -7.3125 20.125 C-8.21613281 19.26132812 -9.11976563 18.39765625 -10.05078125 17.5078125 C-12 15 -12 15 -12.140625 13.0390625 C-10.41522671 9.95461761 -7.97364788 7.66266503 -5.4375 5.25 C-4.91736328 4.74339844 -4.39722656 4.23679687 -3.86132812 3.71484375 C-2.58089916 2.46965595 -1.29132446 1.23388498 0 0 Z " fill="#7A60E5" transform="translate(183,27)"/>
</svg>
